<svg viewBox="-440.468 -22.962 40 53" version="1.1" xmlns="http://www.w3.org/2000/svg" xmlns:xlink="http://www.w3.org/1999/xlink" xmlns:penpot="https://penpot.app/xmlns" fill="none"><penpot:page id="2a21f5ae-60ee-8151-8001-ee1e37eb3e4a"></penpot:page><g id="shape-6c64a2ba-80e7-80cb-8001-ee1ebfe66502" rx="0" ry="0"><penpot:shape penpot:name="Group-1" penpot:type="group" penpot:center-x="-420.4677097656248" penpot:center-y="3.5376146484375965"></penpot:shape><defs></defs><g id="shape-6c64a2ba-80e7-80cb-8001-ee1ebfe66503" style="fill:#000000" rx="0" ry="0"><penpot:shape penpot:name="hand-holding-heart-solid-2" penpot:blocked="false" penpot:hidden="false" penpot:type="group" penpot:transform="matrix(1,0,0,1,0,0)" penpot:transform-inverse="matrix(1,0,0,1,0,0)" penpot:flip-x="false" penpot:proportion="1" penpot:proportion-lock="false" penpot:rotation="0" penpot:center-x="-419.9677103820723" penpot:center-y="10.537614694535762"><penpot:svg-import></penpot:svg-import></penpot:shape><defs></defs><g id="shape-6c64a2ba-80e7-80cb-8001-ee1ebfe66506"><penpot:shape penpot:name="base-background-9" penpot:blocked="false" penpot:hidden="false" penpot:type="rect" penpot:transform="matrix(1,0,0,1,0,0)" penpot:transform-inverse="matrix(1,0,0,1,0,0)" penpot:flip-x="false" penpot:proportion="1" penpot:proportion-lock="false" penpot:rotation="0" penpot:center-x="-419.9677097645214" penpot:center-y="10.537614694535762"><penpot:svg-import penpot:svg-viewbox-x="0" penpot:svg-viewbox-y="0" penpot:svg-viewbox-width="576" penpot:svg-attrs="fill,id" penpot:svg-viewbox-height="512"></penpot:svg-import><penpot:fills><penpot:fill penpot:fill-color="#222222" penpot:fill-opacity="1"></penpot:fill></penpot:fills></penpot:shape><defs></defs><g id="fills-6c64a2ba-80e7-80cb-8001-ee1ebfe66506"><rect fill="none" rx="0" ry="0" style="fill:#222222;fill-opacity:1" x="-437.46770541286037" y="-6.962385011589333" transform="matrix(1,0,0,1,-0.000003,0.000009)" width="34.999991296677976" height="34.99999941225019"></rect></g></g><g id="shape-6c64a2ba-80e7-80cb-8001-ee1ebfe66507"><penpot:shape penpot:name="svg-path-10" penpot:blocked="false" penpot:hidden="false" penpot:type="path" penpot:transform="matrix(1,0,0,1,0,0)" penpot:transform-inverse="matrix(1,0,0,1,0,0)" penpot:flip-x="false" penpot:proportion="1" penpot:proportion-lock="false" penpot:rotation="0" penpot:center-x="-419.9677097645214" penpot:center-y="10.537614694535762"><penpot:svg-import penpot:svg-viewbox-x="0" penpot:svg-viewbox-y="0" penpot:svg-viewbox-width="575.9936922569672" penpot:svg-viewbox-height="512" penpot:svg-transform="matrix(1,0,0,1,0,0)"></penpot:svg-import><penpot:fills><penpot:fill penpot:fill-color="#222222" penpot:fill-opacity="1"></penpot:fill></penpot:fills></penpot:shape><defs></defs><g id="fills-6c64a2ba-80e7-80cb-8001-ee1ebfe66507"><path rx="0" ry="0" style="fill:#222222;fill-opacity:1" d="M-428.475,-1.726C-428.475,-4.618,-426.39,-6.962,-423.82,-6.962C-422.586,-6.962,-421.402,-6.409,-420.533,-5.431L-419.968,-4.795L-419.402,-5.431C-418.533,-6.409,-417.349,-6.962,-416.115,-6.962C-413.545,-6.962,-411.46,-4.618,-411.46,-1.726C-411.46,-0.338,-411.953,0.995,-412.822,1.972L-419.111,9.041C-419.585,9.574,-420.356,9.574,-420.83,9.041L-427.113,1.972C-427.982,0.995,-428.475,-0.338,-428.475,-1.726ZZM-402.941,16.027C-402.145,17.244,-402.376,18.953,-403.458,19.848L-411.151,26.226C-412.572,27.402,-414.286,28.038,-416.054,28.038L-425.801,28.038L-435.523,28.038C-436.599,28.038,-437.468,27.06,-437.468,25.85L-437.468,21.475C-437.468,20.265,-436.599,19.288,-435.523,19.288L-433.287,19.288L-430.559,16.827C-429.179,15.583,-427.466,14.913,-425.698,14.913L-420.94,14.913L-419.968,14.913L-416.079,14.913C-415.003,14.913,-414.134,15.89,-414.134,17.1C-414.134,18.31,-415.003,19.288,-416.079,19.288L-419.968,19.288L-420.94,19.288C-421.474,19.288,-421.912,19.78,-421.912,20.381C-421.912,20.983,-421.474,21.475,-420.94,21.475L-413.612,21.475L-406.338,15.446C-405.256,14.55,-403.737,14.81,-402.941,16.027ZZM-425.704,19.288L-425.704,19.288ZL-425.704,19.288ZC-425.74,19.288,-425.722,19.288,-425.704,19.288ZZ"></path></g></g></g><g id="shape-6c64a2ba-80e7-80cb-8001-ee1ebfe66504" style="fill:#000000" rx="0" ry="0"><penpot:shape penpot:name="clipboard-solid" penpot:type="group" penpot:transform="matrix(1,0,0,1,0,0)" penpot:transform-inverse="matrix(1,0,0,1,0,0)" penpot:proportion="0.75" penpot:proportion-lock="true" penpot:rotation="0" penpot:center-x="-420.4677097656247" penpot:center-y="3.5376146484375397" penpot:constraints-h="scale" penpot:constraints-v="scale"><penpot:svg-import></penpot:svg-import></penpot:shape><defs></defs><g id="shape-6c64a2ba-80e7-80cb-8001-ee1ebfe66509"><penpot:shape penpot:name="svg-path-14" penpot:type="path" penpot:transform="matrix(1,0,0,1,0,0)" penpot:transform-inverse="matrix(1,0,0,1,0,0)" penpot:proportion="1" penpot:proportion-lock="false" penpot:rotation="0" penpot:center-x="-420.4677097656248" penpot:center-y="3.5376146484375965"><penpot:svg-import penpot:svg-viewbox-x="0" penpot:svg-viewbox-y="0" penpot:svg-viewbox-width="384" penpot:svg-viewbox-height="512" penpot:svg-transform="matrix(1,0,0,1,0,0)"></penpot:svg-import><penpot:fills><penpot:fill penpot:fill-color="#222222" penpot:fill-opacity="1"></penpot:fill></penpot:fills></penpot:shape><defs></defs><g id="fills-6c64a2ba-80e7-80cb-8001-ee1ebfe66509"><path rx="0" ry="0" style="fill:#222222;fill-opacity:1" d="M-420.468,-22.962C-424.822,-22.962,-428.53,-20.199,-429.895,-16.337L-435.468,-16.337C-438.228,-16.337,-440.468,-14.112,-440.468,-11.369L-440.468,25.069C-440.468,27.812,-438.228,30.038,-435.468,30.038L-405.468,30.038C-402.707,30.038,-400.468,27.812,-400.468,25.069L-400.468,-11.369C-400.468,-14.112,-402.707,-16.337,-405.468,-16.337L-411.041,-16.337C-412.405,-20.199,-416.114,-22.962,-420.468,-22.962ZZM-420.468,-9.712C-422.311,-9.712,-423.801,-11.193,-423.801,-13.025C-423.801,-14.857,-422.311,-16.337,-420.468,-16.337C-418.624,-16.337,-417.134,-14.857,-417.134,-13.025C-417.134,-11.193,-418.624,-9.712,-420.468,-9.712ZZM-428.801,-3.087L-412.134,-3.087C-411.218,-3.087,-410.468,-2.342,-410.468,-1.431C-410.468,-0.52,-411.218,0.225,-412.134,0.225L-428.801,0.225C-429.718,0.225,-430.468,-0.52,-430.468,-1.431C-430.468,-2.342,-429.718,-3.087,-428.801,-3.087ZZ"></path></g></g></g><g id="shape-6c64a2ba-80e7-80cb-8001-ee1ebfe66505" style="fill:#000000" rx="0" ry="0"><penpot:shape penpot:name="plus-solid" penpot:type="group" penpot:transform="matrix(1,0,0,1,0,0)" penpot:transform-inverse="matrix(1,0,0,1,0,0)" penpot:proportion="0.875" penpot:proportion-lock="true" penpot:rotation="0" penpot:center-x="-420.4677097618996" penpot:center-y="8.03761465167699" penpot:constraints-h="scale" penpot:constraints-v="scale"><penpot:svg-import></penpot:svg-import></penpot:shape><defs></defs><g id="shape-6c64a2ba-80e7-80cb-8001-ee1ebfe6650b"><penpot:shape penpot:name="svg-path-5" penpot:type="path" penpot:transform="matrix(1,0,0,1,0,0)" penpot:transform-inverse="matrix(1,0,0,1,0,0)" penpot:proportion="1" penpot:proportion-lock="false" penpot:rotation="0" penpot:center-x="-420.4677097581743" penpot:center-y="9.037614655888234"><penpot:svg-import penpot:svg-viewbox-x="16" penpot:svg-viewbox-y="48" penpot:svg-viewbox-width="416" penpot:svg-viewbox-height="416" penpot:svg-transform="matrix(1,0,0,1,0,0)"></penpot:svg-import><penpot:fills><penpot:fill penpot:fill-color="#999999" penpot:fill-opacity="1"></penpot:fill></penpot:fills></penpot:shape><defs></defs><g id="fills-6c64a2ba-80e7-80cb-8001-ee1ebfe6650b"><path rx="0" ry="0" style="fill:#999999;fill-opacity:1" d="M-418.237,-2.809C-418.237,-4,-419.234,-4.962,-420.468,-4.962C-421.702,-4.962,-422.698,-4,-422.698,-2.809L-422.698,6.884L-432.737,6.884C-433.971,6.884,-434.968,7.846,-434.968,9.038C-434.968,10.229,-433.971,11.191,-432.737,11.191L-422.698,11.191L-422.698,20.884C-422.698,22.075,-421.702,23.038,-420.468,23.038C-419.234,23.038,-418.237,22.075,-418.237,20.884L-418.237,11.191L-408.198,11.191C-406.965,11.191,-405.968,10.229,-405.968,9.038C-405.968,7.846,-406.965,6.884,-408.198,6.884L-418.237,6.884L-418.237,-2.809ZZ"></path></g></g></g></g></svg>
